<?xml version="1.0" standalone="no"?>
<!DOCTYPE svg>
<svg version="1.0" xmlns="http://www.w3.org/2000/svg" width="49.000000pt" height="42.000000pt"
  viewBox="0 0 49.000000 42.000000" preserveAspectRatio="xMidYMid meet">

  <g transform="translate(0.000000,42.000000) scale(0.100000,-0.100000)" fill="rgb(254, 91, 56)" stroke="none">
    <path d="M0 210 l0 -210 245 0 245 0 0 210 0 210 -245 0 -245 0 0 -210z m333
108 c-15 -29 -29 -56 -31 -60 -2 -5 6 -8 18 -8 16 0 20 -4 16 -15 -10 -28
-160 -208 -164 -197 -2 6 6 41 17 77 12 37 21 71 21 76 0 5 -14 9 -31 9 -30 0
-31 2 -25 30 3 17 13 55 22 85 l15 55 85 0 84 0 -27 -52z m-173 17 c0 -8 -7
-15 -15 -15 -8 0 -15 7 -15 15 0 8 7 15 15 15 8 0 15 -7 15 -15z m230 -37 c25
-41 27 -126 4 -169 -18 -35 -41 -33 -36 2 12 90 13 119 2 138 -10 19 -6 61 6
61 2 0 13 -15 24 -32z m-270 -13 c0 -8 -7 -15 -15 -15 -8 0 -15 7 -15 15 0 8
7 15 15 15 8 0 15 -7 15 -15z m-10 -90 c0 -21 9 -44 25 -63 15 -18 23 -37 19
-46 -8 -22 -17 -20 -41 6 -33 36 -43 63 -43 113 0 43 1 45 20 35 14 -7 20 -21
20 -45z m220 -120 c0 -8 -7 -15 -15 -15 -8 0 -15 7 -15 15 0 8 7 15 15 15 8 0
15 -7 15 -15z m-60 -20 c0 -8 -7 -15 -15 -15 -8 0 -15 7 -15 15 0 8 7 15 15
15 8 0 15 -7 15 -15z" />
  </g>
</svg>